<?xml version="1.0" encoding="UTF-8"?>
<svg version="1.1" xmlns="http://www.w3.org/2000/svg" width="1024" height="1024">
<path d="M0 0 C337.92 0 675.84 0 1024 0 C1024 337.92 1024 675.84 1024 1024 C686.08 1024 348.16 1024 0 1024 C0 686.08 0 348.16 0 0 Z " fill="#FEFEFE" transform="translate(0,0)"/>
<path d="M0 0 C7.00689518 3.96229666 13.98539793 7.96098655 20.875 12.125 C35.80419868 21.13561677 50.91972599 29.83498872 66.0715332 38.46459961 C76.76195624 44.56120664 87.37714435 50.786696 98 57 C101.95765792 59.31365784 105.91604055 61.62606998 109.875 63.9375 C110.84655029 64.50500977 111.81810059 65.07251953 112.8190918 65.65722656 C118.22895409 68.81346007 123.64791508 71.95317097 129.078125 75.07421875 C129.96330307 75.58332039 129.96330307 75.58332039 130.86636353 76.10270691 C133.72559138 77.74692886 136.58606705 79.38885878 139.44873047 81.02709961 C140.47885254 81.61885986 141.50897461 82.21062012 142.5703125 82.8203125 C143.47539551 83.33867676 144.38047852 83.85704102 145.31298828 84.39111328 C146.64305908 85.18751221 146.64305908 85.18751221 148 86 C149.02762357 86.55038972 150.05524714 87.10077944 151.11401081 87.66784763 C154 90 154 90 154.79694653 93.142066 C154.82956317 95.013789 154.82956317 95.013789 154.86283875 96.92332458 C154.88278218 97.61994093 154.90272561 98.31655728 154.92327338 99.03428322 C154.98233261 101.36883115 154.99847824 103.7016536 155.0144043 106.03686523 C155.047094 107.71096807 155.08210966 109.38502687 155.11927795 111.05903625 C155.21081788 115.60902125 155.26185535 120.15855102 155.29992652 124.70926929 C155.32419482 127.55578729 155.35473755 130.40217525 155.38697243 133.24861336 C155.48516174 142.16477322 155.55683623 151.08061621 155.59341401 159.99724334 C155.63611642 170.27190915 155.76746454 180.54036924 155.97591847 190.81297916 C156.13166182 198.76402527 156.20596289 206.71331547 156.2198804 214.66586262 C156.2300472 219.41123254 156.2740742 224.15033429 156.40372276 228.89407158 C157.14896318 257.67486572 157.14896318 257.67486572 151.93405533 264.83759689 C147.04342723 269.28611584 141.6470437 271.893459 135.45790291 274.08596992 C132.14210003 275.31903065 129.44933621 277.0118165 126.5 278.953125 C124.66781289 280.05399326 122.83448716 281.15296883 121 282.25 C119.97712891 282.86294922 118.95425781 283.47589844 117.90039062 284.10742188 C109.18147369 289.31987492 100.41895023 294.45657023 91.64868164 299.58190918 C82.21029865 305.09832453 72.82074917 310.69040707 63.45751953 316.33374023 C57.92507945 319.66225369 52.37796878 322.96312946 46.8046875 326.22265625 C45.8884964 326.75850342 45.8884964 326.75850342 44.95379639 327.30517578 C41.87411914 329.10505153 38.79243991 330.90142995 35.70898438 332.69482422 C29.8273725 336.12268602 23.99185002 339.60182596 18.2265625 343.22265625 C17.17291504 343.88128662 16.11926758 344.53991699 15.03369141 345.21850586 C13.06169892 346.45778554 11.09731506 347.70928531 9.14208984 348.97485352 C8.2702002 349.52197998 7.39831055 350.06910645 6.5 350.6328125 C5.7471875 351.11637207 4.994375 351.59993164 4.21875 352.09814453 C1.38704636 353.24914731 -0.11466239 352.89037513 -3 352 C-5.48828125 350.64453125 -5.48828125 350.64453125 -8.3125 348.8125 C-14.51936802 344.87184987 -20.83201267 341.13318379 -27.1875 337.4375 C-28.21480225 336.83969727 -29.24210449 336.24189453 -30.30053711 335.62597656 C-44.47508636 327.38851928 -58.68245692 319.20765078 -72.89453125 311.03515625 C-82.88283878 305.28790165 -92.8601023 299.536442 -102.71484375 293.5625 C-106.37337857 291.3594318 -110.06232324 289.20952815 -113.75390625 287.0625 C-115.01587818 286.32732671 -116.27784092 285.59213765 -117.53979492 284.85693359 C-119.41963447 283.7619778 -121.30013451 282.6682838 -123.1835022 281.57940674 C-124.06200333 281.07144562 -124.06200333 281.07144562 -124.95825195 280.55322266 C-125.51283962 280.23395278 -126.06742729 279.9146829 -126.63882065 279.58573818 C-127.83631336 278.88096374 -129.02348442 278.15810806 -130.19548988 277.41171741 C-133.5309136 275.30700445 -136.62613943 273.72867612 -140.39051819 272.53248596 C-145.82025647 270.48799249 -149.9062569 268.02775991 -153 263 C-156.09114422 251.35342379 -155.03088988 238.68380245 -154.72369695 226.7490046 C-154.61697288 221.90209328 -154.60740456 217.05498199 -154.58726501 212.20707703 C-154.53455316 203.0401254 -154.39524112 193.87664572 -154.22432369 184.71121901 C-154.03389583 174.27150989 -153.94073789 163.83162936 -153.85550129 153.39061415 C-153.67809826 131.92514265 -153.37934645 110.46279052 -153 89 C-151.8774884 88.35375671 -151.8774884 88.35375671 -150.7322998 87.69445801 C-147.92241861 86.07634464 -145.11288989 84.45762136 -142.30358887 82.83850098 C-141.09392886 82.14148379 -139.88413377 81.44470098 -138.67419434 80.74816895 C-132.25119538 77.05040028 -125.83765057 73.34281681 -119.5 69.5 C-111.79204158 64.83303041 -103.97791542 60.3530152 -96.16796875 55.859375 C-88.76373117 51.59812614 -81.37505072 47.31154928 -74 43 C-60.19490532 34.93328405 -46.34052832 26.95248617 -32.48339844 18.97558594 C-30.12653709 17.61884742 -27.76993076 16.26166779 -25.41357422 14.90405273 C-23.20993131 13.63453881 -21.00586045 12.36576732 -18.80126953 11.09790039 C-12.49395823 7.46380304 -6.22760214 3.76911153 0 0 Z " fill="#51B8F6" transform="translate(512,219)"/>
<path d="M0 0 C0.49144306 22.20034849 0.86129471 44.39979577 1.08805561 66.60448742 C1.19616632 76.91583172 1.34341851 87.2237895 1.58422852 97.53295898 C1.79412571 106.52305641 1.92915004 115.51070169 1.97585839 124.50318128 C2.00315364 129.26248123 2.06681966 134.01476973 2.22033119 138.77181053 C3.1181839 167.68846857 3.1181839 167.68846857 -2.05667496 174.8437767 C-6.94450762 179.30223103 -12.34298984 181.90282578 -18.5386982 184.08823586 C-21.85846392 185.3180092 -24.54914649 187.00964589 -27.5 188.953125 C-29.33218711 190.05399326 -31.16551284 191.15296883 -33 192.25 C-34.02287109 192.86294922 -35.04574219 193.47589844 -36.09960938 194.10742188 C-44.81852631 199.31987492 -53.58104977 204.45657023 -62.35131836 209.58190918 C-71.78970135 215.09832453 -81.17925083 220.69040707 -90.54248047 226.33374023 C-99.14002994 231.50633293 -107.79386677 236.57872253 -116.46109009 241.63327026 C-126.09630652 247.25455232 -135.64781914 252.99601348 -145.12158203 258.88696289 C-146.00313965 259.4308667 -146.88469727 259.97477051 -147.79296875 260.53515625 C-148.94575317 261.25264038 -148.94575317 261.25264038 -150.12182617 261.98461914 C-152 263 -152 263 -154 263 C-154.67934467 240.60899434 -155.18971541 218.21969989 -155.50255299 195.82045841 C-155.65172171 185.41788648 -155.85476349 175.02173682 -156.18774414 164.62329102 C-156.47806833 155.5525629 -156.66415829 146.48648335 -156.72856635 137.41123861 C-156.76620338 132.60879857 -156.85356256 127.81964521 -157.06617165 123.02150154 C-158.27511081 94.64229696 -158.27511081 94.64229696 -152.72922087 87.322824 C-146.16221792 80.5851356 -137.37384509 76.97591374 -128.76712608 73.58389091 C-122.63691823 71.11241582 -117.08788045 67.58656192 -111.4375 64.1875 C-109.29265153 62.94785756 -107.14581163 61.71164761 -104.99609375 60.48046875 C-98.81543553 56.9073523 -92.6976587 53.2357414 -86.58862305 49.54199219 C-80.02546091 45.58589844 -73.3964699 41.75165881 -66.75 37.9375 C-56.59378435 32.10683999 -46.50136232 26.17599047 -36.4375 20.1875 C-35.75375305 19.78064972 -35.0700061 19.37379944 -34.36553955 18.95462036 C-31.70874741 17.3734832 -29.05210828 15.79208957 -26.39575195 14.21022034 C-21.1467282 11.08506004 -15.89008507 7.97303707 -10.625 4.875 C-9.9539624 4.47949951 -9.2829248 4.08399902 -8.59155273 3.67651367 C-2.33580246 0 -2.33580246 0 0 0 Z " fill="#0A509F" transform="translate(666,309)"/>
<path d="M0 0 C1.60047027 0.79487265 3.20032806 1.5909786 4.79992676 2.38760376 C6.13640636 3.05240218 6.13640636 3.05240218 7.49988556 3.73063087 C10.39347862 5.1997787 13.18713659 6.78990827 15.96875 8.4609375 C17.02143066 9.08983887 18.07411133 9.71874023 19.15869141 10.36669922 C20.26132324 11.02943848 21.36395508 11.69217773 22.5 12.375 C24.8917734 13.80453027 27.28549206 15.23078059 29.6796875 16.65625 C30.28589935 17.01741913 30.89211121 17.37858826 31.51669312 17.7507019 C37.85180885 21.51857092 44.23437235 25.20207382 50.625 28.875 C58.42605403 33.36004153 66.21088296 37.86838458 73.95922852 42.44384766 C78.97855342 45.40561054 84.0164541 48.33401715 89.0625 51.25 C104.41253767 60.12320181 119.72911518 69.05370198 135 78.0625 C136.33381714 78.84826416 136.33381714 78.84826416 137.69458008 79.64990234 C138.95951294 80.39747803 138.95951294 80.39747803 140.25 81.16015625 C140.97703125 81.58949463 141.7040625 82.01883301 142.453125 82.46118164 C143.29359375 82.9689917 144.1340625 83.47680176 145 84 C145.64904045 84.2186352 146.2980809 84.43727039 146.96678925 84.6625309 C149.64271416 85.79007045 151.11241143 86.76875623 153 89 C154.23300957 94.47925912 154.01042695 99.95914712 153.90820312 105.5402832 C153.90594604 107.25528355 153.90721416 108.97029163 153.91174316 110.68528748 C153.91403905 115.33841305 153.86700093 119.98988958 153.8111515 124.64263177 C153.76114746 129.50590676 153.75644223 134.3692194 153.74694824 139.23271179 C153.72208111 148.44106151 153.65642943 157.64865158 153.57615232 166.85666674 C153.48673908 177.3401517 153.44274873 187.8236729 153.40258884 198.30744421 C153.31896342 219.8720535 153.17824604 241.4359789 153 263 C151.23642662 262.0410213 149.47320975 261.08138695 147.71014404 260.12147522 C146.72821453 259.58714906 145.74628502 259.0528229 144.73460007 258.50230503 C141.72845534 256.85082173 138.76940582 255.13540218 135.828125 253.37109375 C134.76376221 252.7354248 133.69939941 252.09975586 132.6027832 251.44482422 C131.49636475 250.78240723 130.38994629 250.11999023 129.25 249.4375 C120.66014799 244.31425994 112.03506758 239.2702953 103.3125 234.375 C86.95349643 225.19176957 70.78843469 215.67662752 54.65136719 206.10986328 C49.37143878 202.98202842 44.07874873 199.87746205 38.7734375 196.79296875 C36.8675934 195.68286171 34.96190611 194.57248588 33.0562439 193.46206665 C31.84407903 192.75693846 30.63109358 192.05321829 29.41714478 191.35116577 C28.8461203 191.02089386 28.27509583 190.69062195 27.68676758 190.3503418 C27.14840302 190.04033045 26.61003847 189.7303191 26.05535984 189.41091347 C24.3314276 188.39540863 22.64044252 187.3245635 20.95222473 186.25073242 C18.23318369 184.59153282 15.66331591 183.50555039 12.6335144 182.53852844 C7.20588169 180.4852101 3.10543736 178.0214697 0 173 C-3.09043938 161.42270569 -2.03094345 148.81806746 -1.72369695 136.95093369 C-1.61696794 132.13205204 -1.60740419 127.31296893 -1.58726501 122.49308777 C-1.53455452 113.37925027 -1.39524463 104.26890522 -1.22432369 95.15660161 C-1.03389133 84.77735375 -0.94073682 74.39793341 -0.85550129 64.01737177 C-0.6781014 42.67630303 -0.37935253 21.33837201 0 0 Z " fill="#2096E9" transform="translate(359,309)"/>
<path d="M0 0 C13.0246875 -0.12375 13.0246875 -0.12375 26.3125 -0.25 C29.03153564 -0.28641602 31.75057129 -0.32283203 34.55200195 -0.36035156 C36.73908705 -0.37204847 38.92618095 -0.38223791 41.11328125 -0.390625 C42.22296265 -0.41108887 43.33264404 -0.43155273 44.47595215 -0.45263672 C53.87227577 -0.45678475 63.40315264 1.3127756 70.4296875 8.05078125 C75.77570365 14.68675652 78.96681263 21.82496682 78.375 30.40625 C77.00980027 39.84888149 73.58884967 44.16119952 66 50 C66.51949219 50.29132812 67.03898437 50.58265625 67.57421875 50.8828125 C73.54624646 54.39317259 78.43322269 58.33086246 81 65 C81.95657788 74.68660967 82.19286793 83.96437625 76 92 C70.20659274 98.76334422 62.66407933 102.38466901 53.82119751 103.34533691 C50.35943246 103.4593503 46.92006333 103.45096526 43.45703125 103.390625 C42.34759155 103.38659668 41.23815186 103.38256836 40.09509277 103.37841797 C36.00072389 103.35768911 31.9065931 103.30184574 27.8125 103.25 C18.634375 103.1675 9.45625 103.085 0 103 C0 69.01 0 35.02 0 0 Z " fill="#063D84" transform="translate(345,634)"/>
<path d="M0 0 C7.59 0 15.18 0 23 0 C26.49027056 5.23540584 29.84446299 10.28838382 32.98828125 15.6953125 C33.33328674 16.28656418 33.67829224 16.87781586 34.03375244 17.48698425 C34.75913738 18.73066909 35.48332073 19.97505549 36.20632935 21.22012329 C38.07479083 24.43769984 39.95202122 27.65015691 41.828125 30.86328125 C42.19196793 31.48698105 42.55581085 32.11068085 42.93067932 32.75328064 C46.89221897 39.53942114 50.92656883 46.28057935 55 53 C61.08934253 42.58749403 67.1777554 32.17459628 73.19921875 21.72265625 C73.53989883 21.13135925 73.88057892 20.54006226 74.23158264 19.93084717 C75.88927334 17.05270633 77.54519219 14.17356615 79.19946289 11.29345703 C79.79879639 10.2517334 80.39812988 9.21000977 81.015625 8.13671875 C81.54446289 7.21592529 82.07330078 6.29513184 82.61816406 5.34643555 C83.68824811 3.52937233 84.83027964 1.75458054 86 0 C93.59 0 101.18 0 109 0 C109 33.99 109 67.98 109 103 C101.74 103 94.48 103 87 103 C86.67 81.88 86.34 60.76 86 39 C74.22979903 58.0015538 74.22979903 58.0015538 62.77539062 77.19067383 C61.71173166 79.0043065 60.6346736 80.80933743 59.5546875 82.61328125 C58.94093262 83.65266846 58.32717773 84.69205566 57.69482422 85.76293945 C57.13553223 86.50116943 56.57624023 87.23939941 56 88 C55.01 88 54.02 88 53 88 C51.68823242 86.43725586 51.68823242 86.43725586 50.35546875 84.21484375 C49.85007568 83.38476807 49.34468262 82.55469238 48.82397461 81.69946289 C48.28393799 80.78801514 47.74390137 79.87656738 47.1875 78.9375 C46.62361572 78.00607178 46.05973145 77.07464355 45.47875977 76.11499023 C44.27237048 74.1207075 43.07062565 72.12360935 41.87304688 70.12402344 C39.3611452 65.9344648 36.821584 61.76200268 34.28051758 57.59008789 C33.07460703 55.60909747 31.8712161 53.62657052 30.6706543 51.64233398 C30.11804932 50.73040283 29.56544434 49.81847168 28.99609375 48.87890625 C28.51325928 48.0804126 28.0304248 47.28191895 27.53295898 46.45922852 C25.75060617 43.59991336 23.8689746 40.8034619 22 38 C22 59.45 22 80.9 22 103 C14.74 103 7.48 103 0 103 C0 69.01 0 35.02 0 0 Z " fill="#083F86" transform="translate(777,634)"/>
<path d="M0 0 C8.353125 -0.0825 16.70625 -0.165 25.3125 -0.25 C27.92712158 -0.28641602 30.54174316 -0.32283203 33.2355957 -0.36035156 C35.34064924 -0.37204938 37.44571192 -0.3822386 39.55078125 -0.390625 C40.61727905 -0.41108887 41.68377686 -0.43155273 42.78259277 -0.45263672 C53.5861267 -0.45758963 63.04976363 2.48658981 71 10 C77.36277231 16.5842145 81.05913985 25.38315374 81.4375 34.5625 C80.86632866 44.73303489 77.6151935 52.95733603 70.0078125 59.7890625 C66.2979553 62.7429488 63.69188497 64.15101063 59 65 C65.36817468 75.75897828 71.81173516 86.44244801 78.6965332 96.88061523 C82 101.90459944 82 101.90459944 82 103 C74.10047312 104.3183585 65.75442749 105.47605202 58 103 C51.55855219 97.77742781 48.31924296 89.40571411 45 82 C42.73949669 77.08859115 40.44242295 73.31587355 37 69 C31.72 68.67 26.44 68.34 21 68 C21 79.55 21 91.1 21 103 C14.07 103 7.14 103 0 103 C0 69.01 0 35.02 0 0 Z " fill="#073F85" transform="translate(532,634)"/>
<path d="M0 0 C6.93 0 13.86 0 21 0 C21.0093457 2.07337646 21.01869141 4.14675293 21.02832031 6.28295898 C21.06220161 13.16024763 21.11781194 20.03723973 21.18390274 26.91429043 C21.22328554 31.08081494 21.25551874 35.24713103 21.27099609 39.41381836 C21.28622381 43.44061026 21.32077611 47.4668288 21.36830902 51.49336433 C21.3830602 53.0237636 21.3910374 54.55424476 21.39188385 56.08471489 C21.38110132 69.96797308 21.38110132 69.96797308 28.4375 81.4375 C34.81852877 85.3283712 40.63730928 85.81913506 48 85 C50.94576466 83.93638011 53.28669263 82.60788585 56 81 C56.66 81 57.32 81 58 81 C61.06010444 75.3169489 62.24994048 70.25557498 62.31884766 63.80126953 C62.33391609 62.76120003 62.33391609 62.76120003 62.34928894 61.70011902 C62.37996958 59.42769129 62.39711343 57.15538054 62.4140625 54.8828125 C62.43278636 53.29954024 62.45236068 51.71627784 62.4727478 50.13302612 C62.52394644 45.9804466 62.56363754 41.82783478 62.60089111 37.67510986 C62.64100796 33.43176359 62.69206516 29.18855029 62.7421875 24.9453125 C62.83880148 16.63029273 62.92224042 8.31521749 63 0 C70.26 0 77.52 0 85 0 C85.06810195 8.91960919 85.12300268 17.8390423 85.15543652 26.75885391 C85.17101253 30.90183516 85.19210097 35.04462745 85.22631836 39.1875 C85.25920267 43.1945961 85.27691345 47.20151185 85.28463173 51.2087326 C85.2901236 52.72835881 85.30084592 54.24797649 85.31719017 55.76752472 C85.47014477 70.59382652 83.7171876 83.913778 73.375 95.25 C64.76157064 103.45404584 54.74855877 105.18958269 43.375 105.25 C42.42753906 105.270625 41.48007812 105.29125 40.50390625 105.3125 C28.71979403 105.37698215 19.40582545 102.0417288 10.80078125 93.92578125 C2.85410291 85.50905909 -0.13337315 77.2230546 -0.11352539 65.73120117 C-0.11367142 65.01846039 -0.11381744 64.3057196 -0.1139679 63.57138062 C-0.11327432 61.2285451 -0.105508 58.88579028 -0.09765625 56.54296875 C-0.0957901 54.91343733 -0.09436713 53.28390535 -0.09336853 51.65437317 C-0.08955888 47.37511636 -0.07974188 43.09589374 -0.06866455 38.81665039 C-0.05841702 34.44613101 -0.05386376 30.07560607 -0.04882812 25.70507812 C-0.03811818 17.13670135 -0.02053399 8.56835887 0 0 Z " fill="#083E85" transform="translate(241,633)"/>
<path d="M0 0 C22.77 0 45.54 0 69 0 C69 6.6 69 13.2 69 20 C53.16 20 37.32 20 21 20 C21 27.59 21 35.18 21 43 C35.19 43 49.38 43 64 43 C64 48.94 64 54.88 64 61 C49.81 61 35.62 61 21 61 C21 68.92 21 76.84 21 85 C37.17 85 53.34 85 70 85 C70 91.27 70 97.54 70 104 C46.9 104 23.8 104 0 104 C0 69.68 0 35.36 0 0 Z " fill="#073E84" transform="translate(443,633)"/>
<path d="M0 0 C7.26 0 14.52 0 22 0 C22.0093457 2.07337646 22.01869141 4.14675293 22.02832031 6.28295898 C22.06220161 13.16024763 22.11781194 20.03723973 22.18390274 26.91429043 C22.22328554 31.08081494 22.25551874 35.24713103 22.27099609 39.41381836 C22.28622381 43.44061026 22.32077611 47.4668288 22.36830902 51.49336433 C22.3830602 53.0237636 22.3910374 54.55424476 22.39188385 56.08471489 C22.38110132 69.96797308 22.38110132 69.96797308 29.4375 81.4375 C35.83637669 85.33925408 41.62008585 85.87092155 49 85 C53.59697412 83.65163788 57.52113281 81.94567143 60.47265625 78.0625 C63.48284087 72.36580652 64.11978069 66.76495702 64.20532227 60.3737793 C64.21522186 59.72931351 64.22512146 59.08484772 64.23532104 58.42085266 C64.26673387 56.30534451 64.29161279 54.18981395 64.31640625 52.07421875 C64.33699328 50.60162292 64.3579902 49.12903276 64.37937927 47.65644836 C64.43441943 43.79154067 64.48390786 39.92658126 64.53222656 36.06158447 C64.58257392 32.11327543 64.63819072 28.16504097 64.69335938 24.21679688 C64.80071992 16.47792613 64.90172608 8.73899244 65 1 C71.93 1 78.86 1 86 1 C86.06810916 9.78922526 86.12300675 18.57827172 86.15543652 27.36770248 C86.17101078 31.45015108 86.1920959 35.53240785 86.22631836 39.61474609 C86.25920907 43.56348778 86.27691475 47.51204638 86.28463173 51.46091461 C86.29012248 52.95821255 86.30084251 54.45550188 86.31719017 55.95272064 C86.46694327 70.25276389 85.0389989 83.39529377 74.890625 94.2578125 C63.51200083 104.89094061 53.06575594 105.55660307 38.02734375 105.33203125 C27.05061549 104.92046745 19.04680523 101.2077743 11.15625 93.4453125 C0.61997926 81.49657068 -0.46044644 68.07300486 -0.29296875 52.734375 C-0.28735866 51.20453309 -0.28309526 49.6746857 -0.28010559 48.14483643 C-0.26876781 44.15981605 -0.23939918 40.17513489 -0.20599365 36.19024658 C-0.17505099 32.10734645 -0.16154908 28.02439037 -0.14648438 23.94140625 C-0.1145161 15.9607661 -0.06184194 7.98046461 0 0 Z " fill="#063D85" transform="translate(672,633)"/>
<path d="M0 0 C1.12728516 0.51046875 1.12728516 0.51046875 2.27734375 1.03125 C10.39306827 5.13766788 17.44736074 11.0823665 22 19 C20.94138551 22.32287327 19.86893424 23.07902495 16.8125 24.921875 C15.54770599 25.54368796 14.27656743 26.1527305 13 26.75 C12.35804688 27.06582031 11.71609375 27.38164063 11.0546875 27.70703125 C6.30992965 30 6.30992965 30 4 30 C3.07510999 28.78645005 2.20950122 27.52739293 1.375 26.25 C-2.4578337 20.92923577 -6.92823577 19.02392141 -13 17 C-21.87777402 16.02747389 -29.31740263 17.3665691 -37 22 C-44.5003215 28.11545821 -48.3082741 35.81049427 -49.375 45.35546875 C-49.73239816 55.41846071 -48.2331176 65.53648942 -41.75 73.5625 C-35.83667597 79.60326636 -28.78004437 82.13850621 -20.4375 82.3125 C-12.81530696 82.22606276 -6.52460476 81.32773495 -0.83203125 75.953125 C0.87973035 74.02611194 2.47683159 72.07796485 4 70 C8.08641257 70.73266488 11.59474154 72.68657975 15.25 74.5625 C15.8996875 74.89185547 16.549375 75.22121094 17.21875 75.56054688 C18.81434294 76.37007565 20.40742483 77.18455042 22 78 C20.81287674 84.84878807 14.19920096 90.36192689 9 94.62109375 C-1.67804581 101.9831058 -14.55652641 104.35068913 -27.25 102.53515625 C-41.18325439 99.95322643 -53.15359596 94.11870194 -61.8125 82.5859375 C-70.76148997 68.49127829 -73.29905315 52.44487468 -70.28125 36.109375 C-66.29274826 22.53560294 -58.59592749 10.81083024 -46.40234375 3.24609375 C-32.76838943 -3.82582727 -14.36797968 -6.5621712 0 0 Z " fill="#073D84" transform="translate(206,636)"/>
<path d="M0 0 C6.93 0 13.86 0 21 0 C21 33.99 21 67.98 21 103 C14.07 103 7.14 103 0 103 C0 69.01 0 35.02 0 0 Z " fill="#053B83" transform="translate(631,634)"/>
<path d="M0 0 C4.33125 -0.061875 8.6625 -0.12375 13.125 -0.1875 C14.47996582 -0.21481201 15.83493164 -0.24212402 17.23095703 -0.27026367 C18.85300049 -0.28150269 18.85300049 -0.28150269 20.5078125 -0.29296875 C21.60754395 -0.3086792 22.70727539 -0.32438965 23.84033203 -0.34057617 C28.78118302 0.19199122 31.99984341 1.89171837 35.3125 5.5625 C38.59632992 10.30580989 38.58642377 14.33123689 38 20 C36.67504747 24.48120887 34.5850072 26.61505423 30.6875 29.1796875 C24.86478212 31.95196879 18.80904408 31.42885649 12.5 31.25 C6.3125 31.12625 6.3125 31.12625 0 31 C0 20.77 0 10.54 0 0 Z " fill="#FCFDFD" transform="translate(553,653)"/>
<path d="M0 0 C6.4659375 -0.0928125 6.4659375 -0.0928125 13.0625 -0.1875 C14.40836182 -0.21481201 15.75422363 -0.24212402 17.14086914 -0.27026367 C24.8469232 -0.32378193 30.30995218 -0.10740869 36.375 5 C39.11392731 8.37098745 39.34792531 11.67123664 39.27734375 15.9375 C38.8083752 19.42504073 37.29403799 21.4041149 35 24 C30.53486135 26.71272629 27.26232167 27.36188923 22.0703125 27.29296875 C20.78125 27.28330078 19.4921875 27.27363281 18.1640625 27.26367188 C16.81770214 27.23861188 15.47134797 27.21321712 14.125 27.1875 C12.75522295 27.17243504 11.38542998 27.15874982 10.015625 27.14648438 C6.67691255 27.11121629 3.33840508 27.05741206 0 27 C0 18.09 0 9.18 0 0 Z " fill="#FBFCFD" transform="translate(366,692)"/>
<path d="M0 0 C3.96 -0.0825 7.92 -0.165 12 -0.25 C13.84851563 -0.30462402 13.84851563 -0.30462402 15.734375 -0.36035156 C22.62581267 -0.42953374 27.22909535 0.10736149 33 4 C35.67935339 8.49445262 35.67077556 12.89051212 35 18 C32.66323656 22.15424612 30.44842133 23.56037375 26 25 C23.0456543 25.22705078 23.0456543 25.22705078 19.82421875 25.1953125 C18.66728516 25.18886719 17.51035156 25.18242188 16.31835938 25.17578125 C14.52108398 25.15064453 14.52108398 25.15064453 12.6875 25.125 C11.46998047 25.11597656 10.25246094 25.10695313 8.99804688 25.09765625 C5.99861353 25.07413128 2.99928156 25.03826156 0 25 C0 16.75 0 8.5 0 0 Z " fill="#FAFCFD" transform="translate(366,651)"/>
<path d="M0 0 C0.66 0 1.32 0 2 0 C2 56.76 2 113.52 2 172 C1.34 172 0.68 172 0 172 C-0.15374565 149.72167754 -0.30178302 127.44332372 -0.4429636 105.16491795 C-0.50864547 94.82143231 -0.57621841 84.4779654 -0.64819336 74.13452148 C-0.71089808 65.12261082 -0.77010551 56.11068524 -0.82505554 47.09872383 C-0.85429366 42.32387139 -0.88532215 37.5490453 -0.92053413 32.77423286 C-0.95358182 28.28542609 -0.98197419 23.79661458 -1.00670624 19.30775452 C-1.01664781 17.65529175 -1.02832954 16.00283845 -1.04183006 14.35040092 C-1.05992762 12.10429132 -1.07191632 9.85823233 -1.08229065 7.61207581 C-1.09058679 6.3519848 -1.09888292 5.09189379 -1.10743046 3.7936182 C-1 1 -1 1 0 0 Z " fill="#2F5BA3" transform="translate(664,309)"/>
<path d="M0 0 C16.5 0 33 0 50 0 C50 0.33 50 0.66 50 1 C33.83 1 17.66 1 1 1 C1.33 34 1.66 67 2 101 C7.61 101 13.22 101 19 101 C19.33 89.78 19.66 78.56 20 67 C20.33 67 20.66 67 21 67 C21 78.88 21 90.76 21 103 C14.07 103 7.14 103 0 103 C0 69.01 0 35.02 0 0 Z " fill="#000B5D" transform="translate(532,634)"/>
<path d="M0 0 C7.26 0 14.52 0 22 0 C22 0.66 22 1.32 22 2 C15.4 2 8.8 2 2 2 C2.33 26.75 2.66 51.5 3 77 C-0.21694399 72.17458402 -0.12395218 67.80184262 -0.11352539 62.09838867 C-0.11367142 61.42466217 -0.11381744 60.75093567 -0.1139679 60.05679321 C-0.11327472 57.84381826 -0.10551036 55.63092889 -0.09765625 53.41796875 C-0.09578995 51.87811835 -0.09436705 50.33826735 -0.09336853 48.79841614 C-0.08956002 44.75589341 -0.07974402 40.71340691 -0.06866455 36.67089844 C-0.05841455 32.54167165 -0.05386323 28.41243898 -0.04882812 24.28320312 C-0.0381202 16.18878365 -0.02053695 8.09440051 0 0 Z " fill="#234689" transform="translate(672,633)"/>
<path d="M0 0 C0.33 0 0.66 0 1 0 C1 11.88 1 23.76 1 36 C-5.6 36 -12.2 36 -19 36 C-19 32.37 -19 28.74 -19 25 C-18.67 25 -18.34 25 -18 25 C-18 27.97 -18 30.94 -18 34 C-12.39 34 -6.78 34 -1 34 C-0.67 22.78 -0.34 11.56 0 0 Z " fill="#001D6C" transform="translate(552,701)"/>
<path d="M0 0 C4.66795131 1.28368661 8.21349867 3.27785116 12.16796875 5.9765625 C14.0867543 7.2438481 14.0867543 7.2438481 17 7 C18.35432675 8.31200404 19.68733482 9.64631404 21 11 C21.99 11.33 22.98 11.66 24 12 C24.33 12.99 24.66 13.98 25 15 C21.49535013 13.68190878 18.34784495 12.13705736 15.13671875 10.21484375 C14.25048828 9.68439453 13.36425781 9.15394531 12.45117188 8.60742188 C11.53916016 8.05634766 10.62714844 7.50527344 9.6875 6.9375 C8.75615234 6.38255859 7.82480469 5.82761719 6.86523438 5.25585938 C5.98544922 4.72669922 5.10566406 4.19753906 4.19921875 3.65234375 C3.39315186 3.16757568 2.58708496 2.68280762 1.7565918 2.18334961 C1.1769165 1.79284424 0.59724121 1.40233887 0 1 C0 0.67 0 0.34 0 0 Z " fill="#1487E4" transform="translate(404,508)"/>
<path d="M0 0 C4.41863186 3.77534655 6.95853841 8.65190698 9.8125 13.625 C10.32748047 14.49640625 10.84246094 15.3678125 11.37304688 16.265625 C12.09524414 17.51472656 12.09524414 17.51472656 12.83203125 18.7890625 C13.27264893 19.54912598 13.7132666 20.30918945 14.16723633 21.09228516 C14.57945435 22.036604 14.57945435 22.036604 15 23 C14.67 23.66 14.34 24.32 14 25 C13.67 24.01 13.34 23.02 13 22 C12.34 22 11.68 22 11 22 C10.74605469 21.48050781 10.49210938 20.96101562 10.23046875 20.42578125 C8.29799961 16.51017899 6.29008246 12.721384 4 9 C0 2.33818182 0 2.33818182 0 0 Z " fill="#082676" transform="translate(808,649)"/>
<path d="M0 0 C0.66 0.33 1.32 0.66 2 1 C-1.4502305 3.20048824 -4.91139841 5.38312991 -8.375 7.5625 C-9.35984375 8.19091797 -10.3446875 8.81933594 -11.359375 9.46679688 C-12.77089844 10.35141602 -12.77089844 10.35141602 -14.2109375 11.25390625 C-15.51490479 12.07870483 -15.51490479 12.07870483 -16.84521484 12.92016602 C-17.55629395 13.27651123 -18.26737305 13.63285645 -19 14 C-19.66 13.67 -20.32 13.34 -21 13 C-19.48162587 9.96325174 -16.81572994 9.37290511 -13.8125 8 C-11.82798477 7.12855431 -11.82798477 7.12855431 -11 5 C-8.68745988 3.95281202 -6.3514852 2.95653635 -4 2 C-3.236875 1.5875 -2.47375 1.175 -1.6875 0.75 C-1.130625 0.5025 -0.57375 0.255 0 0 Z " fill="#0C3A8D" transform="translate(533,558)"/>
<path d="M0 0 C3.67033927 3.27708863 5.69281189 6.71522208 8 11 C7 12 7 12 4.93359375 12.09765625 C4.10988281 12.08605469 3.28617188 12.07445312 2.4375 12.0625 C1.61121094 12.05347656 0.78492188 12.04445313 -0.06640625 12.03515625 C-0.70449219 12.02355469 -1.34257813 12.01195312 -2 12 C-2 11.67 -2 11.34 -2 11 C0.31 11 2.62 11 5 11 C4.6390625 10.37351562 4.278125 9.74703125 3.90625 9.1015625 C3.4421875 8.28429687 2.978125 7.46703125 2.5 6.625 C1.80390625 5.40683594 1.80390625 5.40683594 1.09375 4.1640625 C0 2 0 2 0 0 Z " fill="#082F7C" transform="translate(605,724)"/>
<path d="M0 0 C0.66 0.99 1.32 1.98 2 3 C0.625 5 0.625 5 -1 7 C-1.66 7 -2.32 7 -3 7 C-3.103125 7.598125 -3.20625 8.19625 -3.3125 8.8125 C-4.08876455 11.28243264 -5.07088921 12.32251235 -7 14 C-5.53967505 8.68972746 -3.01679014 4.53669968 0 0 Z " fill="#092B77" transform="translate(840,674)"/>
<path d="M0 0 C0.66 0.66 1.32 1.32 2 2 C1.01 2.33 0.02 2.66 -1 3 C-1 3.66 -1 4.32 -1 5 C-2.65 5.33 -4.3 5.66 -6 6 C-6.33 5.34 -6.66 4.68 -7 4 C-4.69 2.68 -2.38 1.36 0 0 Z " fill="#43B2F3" transform="translate(366,304)"/>
<path d="M0 0 C0.66 0.33 1.32 0.66 2 1 C-0.19924069 4.35673579 -2.38269598 6.23772368 -6 8 C-6.66 7.67 -7.32 7.34 -8 7 C-5.36 4.69 -2.72 2.38 0 0 Z " fill="#052875" transform="translate(156,642)"/>
<path d="M0 0 C5.75 1.875 5.75 1.875 8 3 C7.625 4.9375 7.625 4.9375 7 7 C6.01 7.495 6.01 7.495 5 8 C5 6.35 5 4.7 5 3 C2.525 2.01 2.525 2.01 0 1 C0 0.67 0 0.34 0 0 Z " fill="#062270" transform="translate(220,711)"/>
<path d="M0 0 C3.45925163 1.2491742 6.14693203 2.67527795 9 5 C5.98968256 5.93423645 5.13349732 6.04449911 2 5 C2.33 4.34 2.66 3.68 3 3 C2.01 2.01 1.02 1.02 0 0 Z " fill="#42B3F4" transform="translate(656,304)"/>
<path d="M0 0 C1.31223496 3.93670488 0.24296256 6.12488144 -1 10 C-1.99 9.67 -2.98 9.34 -4 9 C-2.68 6.03 -1.36 3.06 0 0 Z " fill="#0E347D" transform="translate(304,703)"/>
</svg>
